HIERARCHY
ROOT Hips
{
  OFFSET 5.80788e-005 67.184 3.4734
  CHANNELS 6 Xposition Yposition Zposition Zrotation Xrotation Yrotation
  JOINT Chest
  {
    OFFSET 0 8.7983 -4.7612
    CHANNELS 6 Xposition Yposition Zposition Zrotation Xrotation Yrotation
    JOINT Chest2
    {
      OFFSET 0 8.0291 0.4195
      CHANNELS 6 Xposition Yposition Zposition Zrotation Xrotation Yrotation
      JOINT Chest3
      {
        OFFSET 0 9.9351 -2.2114
        CHANNELS 6 Xposition Yposition Zposition Zrotation Xrotation Yrotation
        JOINT Neck
        {
          OFFSET 0 22.3885 -0.4656
          CHANNELS 6 Xposition Yposition Zposition Zrotation Xrotation Yrotation
          JOINT Head
          {
            OFFSET -0.0001 12.643 3.4389
            CHANNELS 6 Xposition Yposition Zposition Zrotation Xrotation Yrotation
            End Site
            {
              OFFSET 0.0001 17.6655 0.5274
            }
          }
        }
        JOINT LeftCollar
        {
          OFFSET 2.2603 21.606 7.4023
          CHANNELS 6 Xposition Yposition Zposition Zrotation Xrotation Yrotation
          JOINT LeftShoulder
          {
            OFFSET 13.5163 -1.1332 -5.0146
            CHANNELS 6 Xposition Yposition Zposition Zrotation Xrotation Yrotation
            JOINT LeftElbow
            {
              OFFSET -0.0995 -28.05 -0.2431
              CHANNELS 6 Xposition Yposition Zposition Zrotation Xrotation Yrotation
              JOINT LeftWrist
              {
                OFFSET 0.0679 -23.3996 -0.1402
                CHANNELS 6 Xposition Yposition Zposition Zrotation Xrotation Yrotation
                JOINT LeftFinger1
                {
                  OFFSET 0.7932 -9.069 2.5189
                  CHANNELS 6 Xposition Yposition Zposition Zrotation Xrotation Yrotation
                  JOINT LeftFinger11
                  {
                    OFFSET -0.8272 -3.3923 0.5977
                    CHANNELS 6 Xposition Yposition Zposition Zrotation Xrotation Yrotation
                    JOINT LeftFinger12
                    {
                      OFFSET -0.5649 -2.3158 0.4082
                      CHANNELS 6 Xposition Yposition Zposition Zrotation Xrotation Yrotation
                      End Site
                      {
                        OFFSET -0.4919 -1.6479 0.2673
                      }
                    }
                  }
                }
                JOINT LeftFinger2
                {
                  OFFSET 0.9159 -9.2044 0.2193
                  CHANNELS 6 Xposition Yposition Zposition Zrotation Xrotation Yrotation
                  JOINT LeftFinger21
                  {
                    OFFSET 0.0117 -4.1944 -0.0248
                    CHANNELS 6 Xposition Yposition Zposition Zrotation Xrotation Yrotation
                    JOINT LeftFinger22
                    {
                      OFFSET 0.0071 -2.3249 -0.0142
                      CHANNELS 6 Xposition Yposition Zposition Zrotation Xrotation Yrotation
                      End Site
                      {
                        OFFSET -0.1475 -2.0882 0.0028
                      }
                    }
                  }
                }
                JOINT LeftFinger3
                {
                  OFFSET 0.6113 -8.7231 -2.0637
                  CHANNELS 6 Xposition Yposition Zposition Zrotation Xrotation Yrotation
                  JOINT LeftFinger31
                  {
                    OFFSET -0.1927 -3.8059 -0.2383
                    CHANNELS 6 Xposition Yposition Zposition Zrotation Xrotation Yrotation
                    JOINT LeftFinger32
                    {
                      OFFSET -0.1091 -2.1688 -0.1362
                      CHANNELS 6 Xposition Yposition Zposition Zrotation Xrotation Yrotation
                      End Site
                      {
                        OFFSET -0.2358 -1.9176 -0.0906
                      }
                    }
                  }
                }
                JOINT LeftFinger4
                {
                  OFFSET -0.6151 -8.0947 -3.5641
                  CHANNELS 6 Xposition Yposition Zposition Zrotation Xrotation Yrotation
                  JOINT LeftFinger41
                  {
                    OFFSET -0.4882 -2.341 -0.6462
                    CHANNELS 6 Xposition Yposition Zposition Zrotation Xrotation Yrotation
                    JOINT LeftFinger42
                    {
                      OFFSET -0.3575 -1.7167 -0.4742
                      CHANNELS 6 Xposition Yposition Zposition Zrotation Xrotation Yrotation
                      End Site
                      {
                        OFFSET -0.4187 -1.5237 -0.3496
                      }
                    }
                  }
                }
                JOINT LeftFinger0
                {
                  OFFSET -1.42 -1.8761 1.4223
                  CHANNELS 6 Xposition Yposition Zposition Zrotation Xrotation Yrotation
                  JOINT LeftFinger01
                  {
                    OFFSET -1.1471 -3.4929 2.6334
                    CHANNELS 6 Xposition Yposition Zposition Zrotation Xrotation Yrotation
                    JOINT LeftFinger02
                    {
                      OFFSET -0.823 -2.3 1.6571
                      CHANNELS 6 Xposition Yposition Zposition Zrotation Xrotation Yrotation
                      End Site
                      {
                        OFFSET -0.5822 -1.6914 1.1582
                      }
                    }
                  }
                }
              }
            }
          }
        }
        JOINT RightCollar
        {
          OFFSET -2.2603 21.606 7.4023
          CHANNELS 6 Xposition Yposition Zposition Zrotation Xrotation Yrotation
          JOINT RightShoulder
          {
            OFFSET -13.5187 -1.1334 -5.0155
            CHANNELS 6 Xposition Yposition Zposition Zrotation Xrotation Yrotation
            JOINT RightElbow
            {
              OFFSET 0.0994 -28.0499 -0.2431
              CHANNELS 6 Xposition Yposition Zposition Zrotation Xrotation Yrotation
              JOINT RightWrist
              {
                OFFSET -0.0679 -23.3996 -0.1402
                CHANNELS 6 Xposition Yposition Zposition Zrotation Xrotation Yrotation
                JOINT RightFinger1
                {
                  OFFSET -0.7932 -9.0691 2.5189
                  CHANNELS 6 Xposition Yposition Zposition Zrotation Xrotation Yrotation
                  JOINT RightFinger11
                  {
                    OFFSET 0.8272 -3.3923 0.5977
                    CHANNELS 6 Xposition Yposition Zposition Zrotation Xrotation Yrotation
                    JOINT RightFinger12
                    {
                      OFFSET 0.565 -2.3158 0.4082
                      CHANNELS 6 Xposition Yposition Zposition Zrotation Xrotation Yrotation
                      End Site
                      {
                        OFFSET 0.4919 -1.6479 0.2673
                      }
                    }
                  }
                }
                JOINT RightFinger2
                {
                  OFFSET -0.916 -9.2044 0.2193
                  CHANNELS 6 Xposition Yposition Zposition Zrotation Xrotation Yrotation
                  JOINT RightFinger21
                  {
                    OFFSET -0.0117 -4.1944 -0.0248
                    CHANNELS 6 Xposition Yposition Zposition Zrotation Xrotation Yrotation
                    JOINT RightFinger22
                    {
                      OFFSET -0.0071 -2.3249 -0.0142
                      CHANNELS 6 Xposition Yposition Zposition Zrotation Xrotation Yrotation
                      End Site
                      {
                        OFFSET 0.1475 -2.0882 0.0028
                      }
                    }
                  }
                }
                JOINT RightFinger3
                {
                  OFFSET -0.6113 -8.7231 -2.0637
                  CHANNELS 6 Xposition Yposition Zposition Zrotation Xrotation Yrotation
                  JOINT RightFinger31
                  {
                    OFFSET 0.1927 -3.8059 -0.2383
                    CHANNELS 6 Xposition Yposition Zposition Zrotation Xrotation Yrotation
                    JOINT RightFinger32
                    {
                      OFFSET 0.1091 -2.1688 -0.1362
                      CHANNELS 6 Xposition Yposition Zposition Zrotation Xrotation Yrotation
                      End Site
                      {
                        OFFSET 0.2358 -1.9176 -0.0906
                      }
                    }
                  }
                }
                JOINT RightFinger4
                {
                  OFFSET 0.6151 -8.0947 -3.564
                  CHANNELS 6 Xposition Yposition Zposition Zrotation Xrotation Yrotation
                  JOINT RightFinger41
                  {
                    OFFSET 0.4882 -2.341 -0.6462
                    CHANNELS 6 Xposition Yposition Zposition Zrotation Xrotation Yrotation
                    JOINT RightFinger42
                    {
                      OFFSET 0.3574 -1.7166 -0.4742
                      CHANNELS 6 Xposition Yposition Zposition Zrotation Xrotation Yrotation
                      End Site
                      {
                        OFFSET 0.4187 -1.5237 -0.3496
                      }
                    }
                  }
                }
                JOINT RightFinger0
                {
                  OFFSET 1.4199 -1.8761 1.4221
                  CHANNELS 6 Xposition Yposition Zposition Zrotation Xrotation Yrotation
                  JOINT RightFinger01
                  {
                    OFFSET 1.1472 -3.4929 2.6336
                    CHANNELS 6 Xposition Yposition Zposition Zrotation Xrotation Yrotation
                    JOINT RightFinger02
                    {
                      OFFSET 0.8229 -2.3 1.6571
                      CHANNELS 6 Xposition Yposition Zposition Zrotation Xrotation Yrotation
                      End Site
                      {
                        OFFSET 0.5822 -1.6914 1.1582
                      }
                    }
                  }
                }
              }
            }
          }
        }
      }
    }
  }
  JOINT RightHip
  {
    OFFSET -9.412 3.9771 -0.7758
    CHANNELS 6 Xposition Yposition Zposition Zrotation Xrotation Yrotation
    JOINT RightKnee
    {
      OFFSET -0.7531 -40.938 0
      CHANNELS 6 Xposition Yposition Zposition Zrotation Xrotation Yrotation
      JOINT RightAnkle
      {
        OFFSET 0 -40.1986 0
        CHANNELS 6 Xposition Yposition Zposition Zrotation Xrotation Yrotation
        JOINT RightToe
        {
          OFFSET 0 -4.4182 9.239
          CHANNELS 6 Xposition Yposition Zposition Zrotation Xrotation Yrotation
          End Site
          {
            OFFSET 0 0 6.1981
          }
        }
      }
    }
  }
  JOINT LeftHip
  {
    OFFSET 9.4119 3.9773 -0.7758
    CHANNELS 6 Xposition Yposition Zposition Zrotation Xrotation Yrotation
    JOINT LeftKnee
    {
      OFFSET 0.7532 -40.9383 0
      CHANNELS 6 Xposition Yposition Zposition Zrotation Xrotation Yrotation
      JOINT LeftAnkle
      {
        OFFSET 0 -40.1986 0
        CHANNELS 6 Xposition Yposition Zposition Zrotation Xrotation Yrotation
        JOINT LeftToe
        {
          OFFSET 0 -4.4182 9.239
          CHANNELS 6 Xposition Yposition Zposition Zrotation Xrotation Yrotation
          End Site
          {
            OFFSET 0 0 6.1981
          }
        }
      }
    }
  }
}
MOTION
Frames:	4
Frame Time:	0.0333333
1.63253 41.4579 3.44873 5.09109e-009 26.6503 -1.39821e-008 2.22045e-016 8.7983 -4.7612 0.241817 -1.92637 -0.278834 -2.22045e-016 8.0291 0.4195 0.474648 -3.85388 -0.549994 0 9.9351 -2.2114 0.474648 -3.85389 -0.549994 0 22.3885 -0.4656 1.52289e-005 19.7256 -1.30604e-005 -0.0001 12.643 3.4389 6.43231 -37.5151 3.30512 2.2603 21.606 7.4023 -17.8775 -9.74805 -39.9361 13.5163 -1.1332 -5.0146 49.1377 23.9004 -40.7742 -0.0995 -28.05 -0.2431 -7.81222 -19.1695 -3.59802 0.0679 -23.3996 -0.1402 24.1898 -36.3819 6.57769 0.7932 -9.069 2.5189 -7.42836e-006 5.87115e-006 -3.75699e-006 -0.8272 -3.3923 0.5977 7.42836e-006 -5.87115e-006 3.75699e-006 -0.5649 -2.3158 0.4082 -7.42836e-006 5.87115e-006 -3.75699e-006 0.9159 -9.2044 0.2193 -7.42836e-006 5.87115e-006 -3.75699e-006 0.0117 -4.1944 -0.0248 -0.0128003 0.0023317 9.92854e-005 0.0071 -2.3249 -0.0142 -1.84091e-006 1.67788e-006 -9.82642e-007 0.6113 -8.7231 -2.0637 -7.42836e-006 5.87115e-006 -3.75699e-006 -0.1927 -3.8059 -0.2383 -0.0160233 0.00299873 0.000872395 -0.1091 -2.1688 -0.1362 -1.96147e-006 3.29196e-008 -7.51352e-006 -0.6151 -8.0947 -3.5641 -7.42836e-006 5.87115e-006 -3.75699e-006 -0.4882 -2.341 -0.6462 -0.0125737 0.00312346 0.00282717 -0.3575 -1.7167 -0.4742 -1.37935e-031 1.98785e-015 3.97569e-015 -1.42 -1.8761 1.4223 -7.42836e-006 5.87115e-006 -3.75699e-006 -1.1471 -3.4929 2.6334 7.42836e-006 -5.87115e-006 3.75699e-006 -0.823 -2.3 1.6571 -7.42836e-006 5.87115e-006 -3.75699e-006 -2.2603 21.606 7.4023 11.6412 0.635632 -27.5565 -13.5187 -1.1334 -5.0155 -27.4523 -73.3819 -41.7201 0.0994 -28.0499 -0.2431 98.2567 -31.2886 74.8053 -0.0679 -23.3996 -0.1402 32.2868 -6.96669 -36.4275 -0.7932 -9.0691 2.5189 -1.63901e-005 1.43792e-005 7.4893e-006 0.8272 -3.3923 0.5977 -0 0 6.36111e-015 0.565 -2.3158 0.4082 -2.64834e-031 4.77083e-015 3.18055e-015 -0.916 -9.2044 0.2193 -1.63901e-005 1.43792e-005 7.4893e-006 -0.0117 -4.1944 -0.0248 0.0129466 0.00228942 -8.45122e-005 -0.0071 -2.3249 -0.0142 2.13526e-006 3.03966e-006 3.98322e-007 -0.6113 -8.7231 -2.0637 -1.63901e-005 1.43792e-005 7.4893e-006 0.1927 -3.8059 -0.2383 0.0162687 0.00301678 -0.000873468 0.1091 -2.1688 -0.1362 1.10486e-005 -7.63352e-007 -3.91391e-006 0.6151 -8.0947 -3.564 -1.63901e-005 1.43792e-005 7.4893e-006 0.4882 -2.341 -0.6462 0.014599 0.00368044 -0.00326984 0.3574 -1.7166 -0.4742 7.6394e-006 2.62569e-006 2.64568e-006 1.4199 -1.8761 1.4221 -1.63901e-005 1.43792e-005 7.4893e-006 1.1472 -3.4929 2.6336 -0 0 6.36111e-015 0.8229 -2.3 1.6571 -2.64834e-031 4.77083e-015 3.18055e-015 -9.412 3.9771 -0.7758 -61.5648 -12.3687 -20.3432 -0.7531 -40.938 4.44089e-016 -10.4554 89.6361 8.88821 7.10543e-015 -40.1986 -3.55271e-015 42.5 40.1085 -52.3888 3.55271e-015 -4.4182 9.239 7.5487e-007 2.29778e-006 -4.74237e-006 9.4119 3.9773 -0.7758 61.4408 -12.2889 20.3962 0.7532 -40.9383 0 7.45292 89.6456 -5.89204 0 -40.1986 -3.55271e-015 -42.44 40.1297 52.3418 -3.55271e-015 -4.4182 9.239 3.97362e-006 -9.97572e-007 5.5548e-006 
1.63246 41.5183 3.20887 1.54061e-007 27.3031 -1.07962e-007 0 8.7983 -4.7612 0.24277 -2.07675 -0.278035 -2.22045e-016 8.0291 0.4195 0.475913 -4.15462 -0.547794 0 9.9351 -2.2114 0.475913 -4.15461 -0.547795 0 22.3885 -0.4656 2.37696e-006 18.9666 -1.91733e-006 -0.0001 12.643 3.4389 6.42517 -37.9486 3.35383 2.2603 21.606 7.4023 -17.9858 -9.45581 -39.7298 13.5163 -1.1332 -5.0146 49.1377 23.9003 -40.7743 -0.0995 -28.05 -0.2431 -7.70101 -18.9593 -3.55798 0.0679 -23.3996 -0.1402 24.3381 -36.6427 6.63129 0.7932 -9.069 2.5189 -3.18055e-015 4.77083e-015 -3.97569e-015 -0.8272 -3.3923 0.5977 -3.31043e-032 -1.19271e-015 -1.59028e-015 -0.5649 -2.3158 0.4082 6.36111e-015 2.38542e-015 -1.59028e-015 0.9159 -9.2044 0.2193 -3.18055e-015 4.77083e-015 -3.97569e-015 0.0117 -4.1944 -0.0248 -0.012777 0.00230643 8.16871e-005 0.0071 -2.3249 -0.0142 6.36111e-015 5.56597e-015 6.36111e-015 0.6113 -8.7231 -2.0637 -3.18055e-015 4.77083e-015 -3.97569e-015 -0.1927 -3.8059 -0.2383 -0.016086 0.00298807 0.000859016 -0.1091 -2.1688 -0.1362 -9.54166e-015 -4.37326e-015 1.59028e-015 -0.6151 -8.0947 -3.5641 -3.18055e-015 4.77083e-015 -3.97569e-015 -0.4882 -2.341 -0.6462 -0.0125865 0.00310777 0.00281594 -0.3575 -1.7167 -0.4742 -9.54166e-015 3.18055e-015 1.59028e-015 -1.42 -1.8761 1.4223 -3.18055e-015 4.77083e-015 -3.97569e-015 -1.1471 -3.4929 2.6334 -3.31043e-032 -1.19271e-015 -1.59028e-015 -0.823 -2.3 1.6571 6.36111e-015 2.38542e-015 -1.59028e-015 -2.2603 21.606 7.4023 11.7556 0.721176 -27.8363 -13.5187 -1.1334 -5.0155 -26.918 -73.3902 -41.1766 0.0994 -28.0499 -0.2431 98.2568 -31.2886 74.8053 -0.0679 -23.3996 -0.1402 32.3644 -7.02898 -36.3903 -0.7932 -9.0691 2.5189 5.51588e-006 -1.32895e-006 -1.96238e-006 0.8272 -3.3923 0.5977 -3.18055e-015 -6.36111e-015 -0 0.565 -2.3158 0.4082 -1.4344e-006 -4.91819e-006 1.13683e-006 -0.916 -9.2044 0.2193 5.51588e-006 -1.32895e-006 -1.96238e-006 -0.0117 -4.1944 -0.0248 0.0129401 0.00230591 -8.35267e-005 -0.0071 -2.3249 -0.0142 2.11868e-030 9.54166e-015 -1.27222e-014 -0.6113 -8.7231 -2.0637 5.51588e-006 -1.32895e-006 -1.96238e-006 0.1927 -3.8059 -0.2383 0.0162781 0.00301467 -0.000868622 0.1091 -2.1688 -0.1362 9.54166e-015 3.18055e-015 -0 0.6151 -8.0947 -3.564 5.51588e-006 -1.32895e-006 -1.96238e-006 0.4882 -2.341 -0.6462 0.0145701 0.00367285 -0.00325953 0.3574 -1.7166 -0.4742 7.06791e-007 2.13407e-006 1.53366e-006 1.4199 -1.8761 1.4221 5.51588e-006 -1.32895e-006 -1.96238e-006 1.1472 -3.4929 2.6336 -3.18055e-015 -6.36111e-015 -0 0.8229 -2.3 1.6571 -1.4344e-006 -4.91819e-006 1.13683e-006 -9.412 3.9771 -0.7758 -61.4107 -13.0711 -20.533 -0.7531 -40.938 0 -35.0112 89.8694 33.4471 0 -40.1986 -3.55271e-015 43.0997 39.865 -52.7875 0 -4.4182 9.239 -2.9903e-006 -8.62656e-007 -4.15889e-006 9.4119 3.9773 -0.7758 61.2759 -12.9888 20.5827 0.7532 -40.9383 0 28.9798 89.8863 -27.4226 7.10543e-015 -40.1986 3.55271e-015 -43.045 39.8839 52.7437 0 -4.4182 9.239 -1.21812e-006 3.8382e-007 -7.51869e-006 
1.63238 41.5798 2.96907 8.42604e-008 27.9558 -6.03614e-008 0 8.7983 -4.7612 0.243713 -2.22706 -0.277222 0 8.0291 0.4195 0.477173 -4.45527 -0.545573 0 9.9351 -2.2114 0.477173 -4.45527 -0.545573 0 22.3885 -0.4656 1.53581e-005 18.2069 -1.30718e-005 -0.0001 12.643 3.4389 6.41849 -38.3815 3.40269 2.2603 21.606 7.4023 -18.095 -9.16411 -39.5232 13.5163 -1.1332 -5.0146 49.1376 23.9004 -40.7742 -0.0995 -28.05 -0.2431 -7.58997 -18.7493 -3.51843 0.0679 -23.3996 -0.1402 24.4872 -36.9033 6.6858 0.7932 -9.069 2.5189 3.67468e-006 -4.51201e-006 -3.97856e-006 -0.8272 -3.3923 0.5977 -3.67468e-006 4.51201e-006 3.97856e-006 -0.5649 -2.3158 0.4082 3.67468e-006 -4.51201e-006 -3.97856e-006 0.9159 -9.2044 0.2193 3.67468e-006 -4.51201e-006 -3.97856e-006 0.0117 -4.1944 -0.0248 -0.0128475 0.00232005 0.000104072 0.0071 -2.3249 -0.0142 -1.20942e-006 -2.85343e-006 -2.19743e-005 0.6113 -8.7231 -2.0637 3.67468e-006 -4.51201e-006 -3.97856e-006 -0.1927 -3.8059 -0.2383 -0.0160571 0.00298856 0.000862775 -0.1091 -2.1688 -0.1362 -2.27661e-006 4.05945e-006 -2.56099e-006 -0.6151 -8.0947 -3.5641 3.67468e-006 -4.51201e-006 -3.97856e-006 -0.4882 -2.341 -0.6462 -0.0125856 0.0031197 0.00283193 -0.3575 -1.7167 -0.4742 9.65796e-007 1.15115e-006 -8.12279e-006 -1.42 -1.8761 1.4223 3.67468e-006 -4.51201e-006 -3.97856e-006 -1.1471 -3.4929 2.6334 -3.67468e-006 4.51201e-006 3.97856e-006 -0.823 -2.3 1.6571 3.67468e-006 -4.51201e-006 -3.97856e-006 -2.2603 21.606 7.4023 11.8704 0.805988 -28.1162 -13.5187 -1.1334 -5.0155 -26.3832 -73.3971 -40.6325 0.0994 -28.0499 -0.2431 98.2568 -31.2886 74.8053 -0.0679 -23.3996 -0.1402 32.4421 -7.09127 -36.353 -0.7932 -9.0691 2.5189 3.18055e-015 1.59028e-015 -0 0.8272 -3.3923 0.5977 1.92377e-006 -1.85312e-005 -1.22514e-006 0.565 -2.3158 0.4082 9.11042e-007 2.29778e-005 7.35718e-006 -0.916001 -9.2044 0.2193 3.18055e-015 1.59028e-015 -0 -0.0117 -4.1944 -0.0248 0.0129388 0.00230399 -9.21124e-005 -0.0071 -2.3249 -0.0142 2.34578e-006 1.10519e-005 6.21954e-006 -0.6113 -8.7231 -2.0637 3.18055e-015 1.59028e-015 -0 0.1927 -3.8059 -0.2383 0.0163532 0.003039 -0.000869977 0.1091 -2.1688 -0.1362 3.18055e-015 3.18055e-015 -3.18055e-015 0.6151 -8.0947 -3.564 3.18055e-015 1.59028e-015 -0 0.4882 -2.341 -0.6462 0.014527 0.00365603 -0.00325481 0.3574 -1.7166 -0.4742 -1.01112e-005 1.28145e-005 1.12928e-005 1.4199 -1.8761 1.4221 3.18055e-015 1.59028e-015 -0 1.1472 -3.4929 2.6336 1.92377e-006 -1.85312e-005 -1.22514e-006 0.8229 -2.3 1.6571 9.11042e-007 2.29778e-005 7.35718e-006 -9.412 3.9771 -0.7758 -61.2583 -13.7739 -20.7214 -0.7531 -40.938 4.44089e-016 -149.849 89.8333 148.288 0 -40.1986 -3.55271e-015 43.6947 39.6179 -53.1812 0 -4.4182 9.239 -1.9933e-006 -3.65545e-008 -2.77276e-006 9.4119 3.9773 -0.7758 61.1128 -13.689 20.7675 0.7532 -40.9383 4.44089e-016 157.187 89.8345 -155.633 0 -40.1986 -3.55271e-015 -43.6454 39.6345 53.1406 -3.55271e-015 -4.4182 9.239 2.97861e-006 7.48644e-007 4.16724e-006 
1.6323 41.6422 2.72934 -1.37584e-007 28.6084 9.33096e-008 0 8.7983 -4.7612 0.244652 -2.37743 -0.276409 0 8.0291 0.4195 0.478428 -4.75598 -0.543345 0 9.9351 -2.2114 0.478429 -4.756 -0.543347 0 22.3885 -0.4656 -9.03628e-006 17.447 7.82046e-006 -0.0001 12.643 3.4389 6.41224 -38.8137 3.45171 2.2603 21.606 7.4023 -18.2053 -8.87257 -39.3161 13.5163 -1.1332 -5.0146 49.1377 23.9003 -40.7743 -0.0995 -28.05 -0.2431 -7.4794 -18.5389 -3.47932 0.0679 -23.3996 -0.1402 24.6372 -37.1638 6.74141 0.7932 -9.069 2.5189 -3.18055e-015 3.97569e-016 3.97569e-015 -0.8272 -3.3923 0.5977 6.36111e-015 1.59028e-015 4.77083e-015 -0.5649 -2.3158 0.4082 3.18055e-015 1.19271e-015 3.97569e-015 0.9159 -9.2044 0.2193 -3.18055e-015 3.97569e-016 3.97569e-015 0.0117 -4.1944 -0.0248 -0.0128104 0.00231814 8.5415e-005 0.0071 -2.3249 -0.0142 3.18055e-015 5.1684e-015 -3.97569e-015 0.6113 -8.7231 -2.0637 -3.18055e-015 3.97569e-016 3.97569e-015 -0.1927 -3.8059 -0.2383 -0.0160189 0.00298903 0.000854137 -0.1091 -2.1688 -0.1362 1.27222e-014 3.97569e-016 3.97569e-015 -0.6151 -8.0947 -3.5641 -3.18055e-015 3.97569e-016 3.97569e-015 -0.4882 -2.341 -0.6462 -0.0125491 0.00311339 0.00282183 -0.3575 -1.7167 -0.4742 -1.27222e-014 2.78299e-015 -4.77083e-015 -1.42 -1.8761 1.4223 -3.18055e-015 3.97569e-016 3.97569e-015 -1.1471 -3.4929 2.6334 6.36111e-015 1.59028e-015 4.77083e-015 -0.823 -2.3 1.6571 3.18055e-015 1.19271e-015 3.97569e-015 -2.2603 21.606 7.4023 11.9855 0.890524 -28.3963 -13.5187 -1.1334 -5.0155 -25.848 -73.4026 -40.0881 0.0994 -28.0499 -0.2431 98.2568 -31.2886 74.8053 -0.0679 -23.3996 -0.1402 32.5197 -7.15348 -36.3156 -0.7932 -9.0691 2.5189 0 0 -3.18055e-015 0.8272 -3.3923 0.5977 4.76994e-006 -8.99122e-006 6.98193e-007 0.565 -2.3158 0.4082 -4.76994e-006 8.99122e-006 -6.98192e-007 -0.916 -9.2044 0.2193 0 0 -3.18055e-015 -0.0117 -4.1944 -0.0248 0.0129105 0.00230946 -8.3565e-005 -0.0071 -2.3249 -0.0142 -0 0 3.18055e-015 -0.6113 -8.7231 -2.0637 0 0 -3.18055e-015 0.1927 -3.8059 -0.2383 0.0163564 0.00303735 -0.000877839 0.1091 -2.1688 -0.1362 3.18055e-015 -4.77083e-015 3.18055e-015 0.6151 -8.0947 -3.564 0 0 -3.18055e-015 0.4882 -2.341 -0.6462 0.014605 0.00368244 -0.00326389 0.3574 -1.7166 -0.4742 -6.36111e-015 3.18055e-015 -0 1.4199 -1.8761 1.4221 0 0 -3.18055e-015 1.1472 -3.4929 2.6336 4.76994e-006 -8.99122e-006 6.98193e-007 0.8229 -2.3 1.6571 -4.76994e-006 8.99122e-006 -6.98192e-007 -9.412 3.9771 -0.7758 -61.1075 -14.4773 -20.9083 -0.7531 -40.938 4.44089e-016 -166.827 89.5937 165.269 -7.10543e-015 -40.1986 1.06581e-014 44.2853 39.3673 -53.57 0 -4.4182 9.239 -9.2442e-006 -1.59058e-006 4.52135e-006 9.4119 3.9773 -0.7758 60.9514 -14.3895 20.9509 0.7532 -40.9383 0 169.747 89.5886 -168.198 7.10543e-015 -40.1986 3.55271e-015 -44.2413 39.3816 53.5325 0 -4.4182 9.239 -7.70975e-007 3.20161e-006 4.74069e-006 
